<mxfile host="65bd71144e">
    <diagram id="GhRMW-iKEQxfaCgWAt0X" name="Page-1">
        <mxGraphModel dx="1612" dy="1562" grid="1" gridSize="10" guides="1" tooltips="1" connect="1" arrows="1" fold="1" page="1" pageScale="1" pageWidth="850" pageHeight="1100" math="0" shadow="0">
            <root>
                <mxCell id="0"/>
                <mxCell id="1" parent="0"/>
                <mxCell id="25" value="" style="group" parent="1" vertex="1" connectable="0">
                    <mxGeometry x="300" y="210" width="470" height="690" as="geometry"/>
                </mxCell>
                <mxCell id="2" value="" style="whiteSpace=wrap;html=1;" parent="25" vertex="1">
                    <mxGeometry width="470" height="690" as="geometry"/>
                </mxCell>
                <mxCell id="3" value="NAVBAR" style="whiteSpace=wrap;html=1;" parent="25" vertex="1">
                    <mxGeometry width="470" height="30" as="geometry"/>
                </mxCell>
                <mxCell id="4" value="HEROSECTION" style="whiteSpace=wrap;html=1;strokeColor=#FFFFFF;" parent="25" vertex="1">
                    <mxGeometry x="10" y="40" width="450" height="160" as="geometry"/>
                </mxCell>
                <mxCell id="12" value="" style="group" parent="25" vertex="1" connectable="0">
                    <mxGeometry x="20" y="230" width="440" height="150" as="geometry"/>
                </mxCell>
                <mxCell id="13" value="" style="whiteSpace=wrap;html=1;" parent="12" vertex="1">
                    <mxGeometry x="-10" y="-20" width="450" height="170" as="geometry"/>
                </mxCell>
                <mxCell id="15" value="" style="group" parent="12" vertex="1" connectable="0">
                    <mxGeometry y="15" width="430" height="120" as="geometry"/>
                </mxCell>
                <mxCell id="5" value="" style="whiteSpace=wrap;html=1;" parent="15" vertex="1">
                    <mxGeometry width="90" height="120" as="geometry"/>
                </mxCell>
                <mxCell id="9" value="" style="whiteSpace=wrap;html=1;" parent="15" vertex="1">
                    <mxGeometry x="110" width="90" height="120" as="geometry"/>
                </mxCell>
                <mxCell id="10" value="" style="whiteSpace=wrap;html=1;" parent="15" vertex="1">
                    <mxGeometry x="225" width="90" height="120" as="geometry"/>
                </mxCell>
                <mxCell id="11" value="" style="whiteSpace=wrap;html=1;" parent="15" vertex="1">
                    <mxGeometry x="340" width="90" height="120" as="geometry"/>
                </mxCell>
                <mxCell id="20" value="ALTRE DESTINAZIONI" style="text;strokeColor=none;align=center;fillColor=none;html=1;verticalAlign=middle;whiteSpace=wrap;rounded=0;" parent="15" vertex="1">
                    <mxGeometry x="120" y="-30" width="160" height="30" as="geometry"/>
                </mxCell>
                <mxCell id="21" value="CARD" style="text;strokeColor=none;align=center;fillColor=none;html=1;verticalAlign=middle;whiteSpace=wrap;rounded=0;" parent="15" vertex="1">
                    <mxGeometry x="15" y="45" width="60" height="30" as="geometry"/>
                </mxCell>
                <mxCell id="16" value="" style="whiteSpace=wrap;html=1;" parent="25" vertex="1">
                    <mxGeometry y="620" width="470" height="70" as="geometry"/>
                </mxCell>
                <mxCell id="17" value="" style="whiteSpace=wrap;html=1;" parent="25" vertex="1">
                    <mxGeometry x="10" y="390" width="220" height="220" as="geometry"/>
                </mxCell>
                <mxCell id="18" value="" style="whiteSpace=wrap;html=1;" parent="25" vertex="1">
                    <mxGeometry x="240" y="390" width="220" height="220" as="geometry"/>
                </mxCell>
                <mxCell id="22" value="PROMOZIONI" style="text;strokeColor=none;align=center;fillColor=none;html=1;verticalAlign=middle;whiteSpace=wrap;rounded=0;" parent="25" vertex="1">
                    <mxGeometry x="67.5" y="485" width="95" height="30" as="geometry"/>
                </mxCell>
                <mxCell id="23" value="FORM CONSGILI NUOVE DESTINAZIONI" style="text;strokeColor=none;align=center;fillColor=none;html=1;verticalAlign=middle;whiteSpace=wrap;rounded=0;" parent="25" vertex="1">
                    <mxGeometry x="270" y="480" width="160" height="30" as="geometry"/>
                </mxCell>
                <mxCell id="24" value="FOOTER" style="text;strokeColor=none;align=center;fillColor=none;html=1;verticalAlign=middle;whiteSpace=wrap;rounded=0;" parent="25" vertex="1">
                    <mxGeometry x="160" y="640" width="160" height="30" as="geometry"/>
                </mxCell>
                <mxCell id="46" value="HOMEPAGE" style="text;strokeColor=none;align=center;fillColor=none;html=1;verticalAlign=middle;whiteSpace=wrap;rounded=0;" parent="1" vertex="1">
                    <mxGeometry x="510" y="170" width="60" height="30" as="geometry"/>
                </mxCell>
                <mxCell id="66" value="SINGLE POST" style="text;strokeColor=none;align=center;fillColor=none;html=1;verticalAlign=middle;whiteSpace=wrap;rounded=0;" parent="1" vertex="1">
                    <mxGeometry x="1017.5" y="170" width="115" height="30" as="geometry"/>
                </mxCell>
                <mxCell id="70" value="" style="group" parent="1" vertex="1" connectable="0">
                    <mxGeometry x="840" y="210" width="470" height="690" as="geometry"/>
                </mxCell>
                <mxCell id="28" value="" style="whiteSpace=wrap;html=1;" parent="70" vertex="1">
                    <mxGeometry width="470" height="690" as="geometry"/>
                </mxCell>
                <mxCell id="29" value="NAVBAR" style="whiteSpace=wrap;html=1;" parent="70" vertex="1">
                    <mxGeometry width="470" height="30" as="geometry"/>
                </mxCell>
                <mxCell id="40" value="" style="whiteSpace=wrap;html=1;" parent="70" vertex="1">
                    <mxGeometry y="620" width="470" height="70" as="geometry"/>
                </mxCell>
                <mxCell id="45" value="FOOTER" style="text;strokeColor=none;align=center;fillColor=none;html=1;verticalAlign=middle;whiteSpace=wrap;rounded=0;" parent="70" vertex="1">
                    <mxGeometry x="160" y="640" width="160" height="30" as="geometry"/>
                </mxCell>
                <mxCell id="67" value="" style="edgeStyle=none;html=1;" parent="70" source="66" target="29" edge="1">
                    <mxGeometry relative="1" as="geometry"/>
                </mxCell>
                <mxCell id="68" value="CONTENUTO POST" style="whiteSpace=wrap;html=1;strokeColor=#FFFFFF;fillColor=none;" parent="70" vertex="1">
                    <mxGeometry x="20" y="60" width="290" height="520" as="geometry"/>
                </mxCell>
                <mxCell id="69" value="SIDEBAR" style="whiteSpace=wrap;html=1;strokeColor=#FFFFFF;fillColor=none;" parent="70" vertex="1">
                    <mxGeometry x="320" y="60" width="130" height="520" as="geometry"/>
                </mxCell>
                <mxCell id="76" value="" style="edgeStyle=none;html=1;" parent="1" target="73" edge="1">
                    <mxGeometry relative="1" as="geometry"/>
                </mxCell>
                <mxCell id="81" value="" style="group" vertex="1" connectable="0" parent="1">
                    <mxGeometry x="1340" y="170" width="470" height="730" as="geometry"/>
                </mxCell>
                <mxCell id="80" value="SINGLE PAGE" style="text;strokeColor=none;align=center;fillColor=none;html=1;verticalAlign=middle;whiteSpace=wrap;rounded=0;" parent="81" vertex="1">
                    <mxGeometry x="177.5" width="115" height="30" as="geometry"/>
                </mxCell>
                <mxCell id="72" value="" style="whiteSpace=wrap;html=1;" parent="81" vertex="1">
                    <mxGeometry y="40" width="470" height="690" as="geometry"/>
                </mxCell>
                <mxCell id="73" value="NAVBAR" style="whiteSpace=wrap;html=1;" parent="81" vertex="1">
                    <mxGeometry y="40" width="470" height="30" as="geometry"/>
                </mxCell>
                <mxCell id="74" value="" style="whiteSpace=wrap;html=1;" parent="81" vertex="1">
                    <mxGeometry y="660" width="470" height="70" as="geometry"/>
                </mxCell>
                <mxCell id="75" value="FOOTER" style="text;strokeColor=none;align=center;fillColor=none;html=1;verticalAlign=middle;whiteSpace=wrap;rounded=0;" parent="81" vertex="1">
                    <mxGeometry x="160" y="680" width="160" height="30" as="geometry"/>
                </mxCell>
                <mxCell id="83" value="ARCHIVE" style="text;strokeColor=none;align=center;fillColor=none;html=1;verticalAlign=middle;whiteSpace=wrap;rounded=0;" vertex="1" parent="1">
                    <mxGeometry x="2017.5" y="170" width="115" height="30" as="geometry"/>
                </mxCell>
                <mxCell id="84" value="" style="whiteSpace=wrap;html=1;" vertex="1" parent="1">
                    <mxGeometry x="1840" y="210" width="470" height="690" as="geometry"/>
                </mxCell>
                <mxCell id="85" value="NAVBAR" style="whiteSpace=wrap;html=1;" vertex="1" parent="1">
                    <mxGeometry x="1840" y="210" width="470" height="30" as="geometry"/>
                </mxCell>
                <mxCell id="86" value="" style="whiteSpace=wrap;html=1;" vertex="1" parent="1">
                    <mxGeometry x="1840" y="830" width="470" height="70" as="geometry"/>
                </mxCell>
                <mxCell id="87" value="FOOTER" style="text;strokeColor=none;align=center;fillColor=none;html=1;verticalAlign=middle;whiteSpace=wrap;rounded=0;" vertex="1" parent="1">
                    <mxGeometry x="2000" y="850" width="160" height="30" as="geometry"/>
                </mxCell>
                <mxCell id="88" value="BARRA DI RICERCA" style="whiteSpace=wrap;html=1;" vertex="1" parent="1">
                    <mxGeometry x="1870" y="260" width="410" height="30" as="geometry"/>
                </mxCell>
                <mxCell id="89" value="DESTINAZIONE" style="whiteSpace=wrap;html=1;" vertex="1" parent="1">
                    <mxGeometry x="1870" y="320" width="120" height="140" as="geometry"/>
                </mxCell>
                <mxCell id="90" value="" style="whiteSpace=wrap;html=1;" vertex="1" parent="1">
                    <mxGeometry x="2012.5" y="320" width="120" height="140" as="geometry"/>
                </mxCell>
                <mxCell id="91" value="" style="whiteSpace=wrap;html=1;" vertex="1" parent="1">
                    <mxGeometry x="2160" y="320" width="120" height="140" as="geometry"/>
                </mxCell>
                <mxCell id="92" value="" style="whiteSpace=wrap;html=1;" vertex="1" parent="1">
                    <mxGeometry x="1870" y="480" width="120" height="140" as="geometry"/>
                </mxCell>
                <mxCell id="93" value="" style="whiteSpace=wrap;html=1;" vertex="1" parent="1">
                    <mxGeometry x="2012.5" y="480" width="120" height="140" as="geometry"/>
                </mxCell>
                <mxCell id="94" value="" style="whiteSpace=wrap;html=1;" vertex="1" parent="1">
                    <mxGeometry x="2160" y="480" width="120" height="140" as="geometry"/>
                </mxCell>
                <mxCell id="95" value="" style="whiteSpace=wrap;html=1;" vertex="1" parent="1">
                    <mxGeometry x="1870" y="640" width="120" height="140" as="geometry"/>
                </mxCell>
                <mxCell id="96" value="" style="whiteSpace=wrap;html=1;" vertex="1" parent="1">
                    <mxGeometry x="2012.5" y="640" width="120" height="140" as="geometry"/>
                </mxCell>
                <mxCell id="97" value="" style="whiteSpace=wrap;html=1;" vertex="1" parent="1">
                    <mxGeometry x="2160" y="640" width="120" height="140" as="geometry"/>
                </mxCell>
                <mxCell id="110" value="404" style="text;strokeColor=none;align=center;fillColor=none;html=1;verticalAlign=middle;whiteSpace=wrap;rounded=0;" vertex="1" parent="1">
                    <mxGeometry x="2517.5" y="170" width="115" height="30" as="geometry"/>
                </mxCell>
                <mxCell id="111" value="" style="whiteSpace=wrap;html=1;" vertex="1" parent="1">
                    <mxGeometry x="2340" y="210" width="470" height="690" as="geometry"/>
                </mxCell>
                <mxCell id="122" value="ERRORE 404" style="whiteSpace=wrap;html=1;" vertex="1" parent="1">
                    <mxGeometry x="2355" y="250" width="435" height="240" as="geometry"/>
                </mxCell>
                <mxCell id="123" value="TORNA ALLA HOME" style="whiteSpace=wrap;html=1;" vertex="1" parent="1">
                    <mxGeometry x="2517.5" y="500" width="120" height="30" as="geometry"/>
                </mxCell>
            </root>
        </mxGraphModel>
    </diagram>
</mxfile>